# The Great Editor v0.0.1
mtllib navgraph_0.mtl
o walls
v 13.8722 -31.0139 0.1000
v 21.3681 -31.0139 0.1000
v 21.3681 -32.0139 0.1000
v 13.8722 -32.0139 0.1000
vt 0.000 1.000
vt 6.4959 1.000
vt 6.4959 0.000
vt 0.000 0.000
v 21.3681 -32.0139 0.1000
v 13.8722 -32.0139 0.1000
v 13.8722 -31.0139 0.1000
v 21.3681 -31.0139 0.1000
vt 0.000 1.000
vt 6.4959 1.000
vt 6.4959 0.000
vt 0.000 0.000
v 20.3715 -31.0106 0.1000
v 34.7722 -31.1082 0.1000
v 34.7654 -32.1081 0.1000
v 20.3647 -32.0105 0.1000
vt 0.000 1.000
vt 13.4011 1.000
vt 13.4011 0.000
vt 0.000 0.000
v 34.7654 -32.1081 0.1000
v 20.3647 -32.0105 0.1000
v 20.3715 -31.0106 0.1000
v 34.7722 -31.1082 0.1000
vt 0.000 1.000
vt 13.4011 1.000
vt 13.4011 0.000
vt 0.000 0.000
v 33.7688 -32.1048 0.1000
v 33.7688 -23.5186 0.1000
v 34.7688 -23.5186 0.1000
v 34.7688 -32.1048 0.1000
vt 0.000 1.000
vt 7.5862 1.000
vt 7.5862 0.000
vt 0.000 0.000
v 34.7688 -23.5186 0.1000
v 34.7688 -32.1048 0.1000
v 33.7688 -32.1048 0.1000
v 33.7688 -23.5186 0.1000
vt 0.000 1.000
vt 7.5862 1.000
vt 7.5862 0.000
vt 0.000 0.000
v 33.7317 -24.4784 0.1000
v 34.6721 -12.3520 0.1000
v 35.6691 -12.4293 0.1000
v 34.7287 -24.5557 0.1000
vt 0.000 1.000
vt 11.1628 1.000
vt 11.1628 0.000
vt 0.000 0.000
v 35.6691 -12.4293 0.1000
v 34.7287 -24.5557 0.1000
v 33.7317 -24.4784 0.1000
v 34.6721 -12.3520 0.1000
vt 0.000 1.000
vt 11.1628 1.000
vt 11.1628 0.000
vt 0.000 0.000
v 34.6392 -13.3964 0.1000
v 34.5339 -6.1276 0.1000
v 35.5338 -6.1131 0.1000
v 35.6391 -13.3819 0.1000
vt 0.000 1.000
vt 6.2695 1.000
vt 6.2695 0.000
vt 0.000 0.000
v 35.5338 -6.1131 0.1000
v 35.6391 -13.3819 0.1000
v 34.6392 -13.3964 0.1000
v 34.5339 -6.1276 0.1000
vt 0.000 1.000
vt 6.2695 1.000
vt 6.2695 0.000
vt 0.000 0.000
v 34.5470 -6.1145 0.1000
v 47.2214 -6.2625 0.1000
v 47.2098 -7.2624 0.1000
v 34.5353 -7.1145 0.1000
vt 0.000 1.000
vt 11.6753 1.000
vt 11.6753 0.000
vt 0.000 0.000
v 47.2098 -7.2624 0.1000
v 34.5353 -7.1145 0.1000
v 34.5470 -6.1145 0.1000
v 47.2214 -6.2625 0.1000
vt 0.000 1.000
vt 11.6753 1.000
vt 11.6753 0.000
vt 0.000 0.000
vn 0.000 0.000 1.000
s off
g lanes
f 1/1/1 3/3/1 2/2/1
f 1/1/1 4/4/1 3/3/1
f 5/5/1 7/7/1 6/6/1
f 5/5/1 8/8/1 7/7/1
f 9/9/1 11/11/1 10/10/1
f 9/9/1 12/12/1 11/11/1
f 13/13/1 15/15/1 14/14/1
f 13/13/1 16/16/1 15/15/1
f 17/17/1 19/19/1 18/18/1
f 17/17/1 20/20/1 19/19/1
f 21/21/1 23/23/1 22/22/1
f 21/21/1 24/24/1 23/23/1
f 25/25/1 27/27/1 26/26/1
f 25/25/1 28/28/1 27/27/1
f 29/29/1 31/31/1 30/30/1
f 29/29/1 32/32/1 31/31/1
f 33/33/1 35/35/1 34/34/1
f 33/33/1 36/36/1 35/35/1
f 37/37/1 39/39/1 38/38/1
f 37/37/1 40/40/1 39/39/1
f 41/41/1 43/43/1 42/42/1
f 41/41/1 44/44/1 43/43/1
f 45/45/1 47/47/1 46/46/1
f 45/45/1 48/48/1 47/47/1
