# The Great Editor v0.0.1
mtllib floor_1.mtl
o floor_1
v 6.331672369288302 -30.696259064577085 0
v 6.331672369288302 -30.696259064577085 -0.1
v 6.331672369288302 -32.37701938658301 0
v 6.331672369288302 -32.37701938658301 -0.1
v 68.70191410045025 -33.19469196558845 0
v 68.70191410045025 -33.19469196558845 -0.1
v 66.20348119943888 -31.241390752838583 0
v 66.20348119943888 -31.241390752838583 -0.1
v 35.99501094023285 -30.514548501823253 0
v 35.99501094023285 -30.514548501823253 -0.1
v 36.17672150298668 -7.347175398927132 0
v 36.17672150298668 -7.347175398927132 -0.1
v 67.33915973995694 -8.3465585406864 0
v 67.33915973995694 -8.3465585406864 -0.1
v 69.2924609527068 -8.391973704681453 0
v 69.2924609527068 -8.391973704681453 -0.1
v 74.33479182549819 -8.391973704681453 0
v 74.33479182549819 -8.391973704681453 -0.1
v 74.28937666150314 -7.75601168842985 0
v 74.28937666150314 -7.75601168842985 -0.1
v 73.83507530123175 -7.75601168842985 0
v 73.83507530123175 -7.75601168842985 -0.1
v 73.88054037200043 -7.392590562922185 0
v 73.88054037200043 -7.392590562922185 -0.1
v 74.38020698949325 -7.347175398927132 0
v 74.38020698949325 -7.347175398927132 -0.1
v 74.38020698949325 -6.529502819921698 0
v 74.38020698949325 -6.529502819921698 -0.1
v 13.690725580337219 -5.121283388659712 0
v 13.690725580337219 -5.121283388659712 -0.1
v 13.781605815100944 -6.938339109424415 0
v 13.781605815100944 -6.938339109424415 -0.1
v 33.8145840007341 -7.528885961680965 0
v 33.8145840007341 -7.528885961680965 -0.1
v 33.76911892996543 -12.480336599708629 0
v 33.76911892996543 -12.480336599708629 -0.1
v 34.40513085299065 -12.843757725216294 0
v 34.40513085299065 -12.843757725216294 -0.1
v 32.58807513222595 -12.934588053206399 0
v 32.58807513222595 -12.934588053206399 -0.1
v 32.49719489746222 -20.429936663014093 0
v 32.49719489746222 -20.429936663014093 -0.1
v 31.27068602895407 -25.29055697305165 0
v 31.27068602895407 -25.29055697305165 -0.1
v 31.225270864959022 -30.787089392567193 0
v 31.225270864959022 -30.787089392567193 -0.1
v 36.13546294011842 -12.6074778556047 0
v 36.13546294011842 -12.6074778556047 -0.1
v 36.12580137138101 -13.839289393176873 0
v 36.12580137138101 -13.839289393176873 -0.1
vt 6.331672369288302 -30.696259064577085 0
vt 6.331672369288302 -32.37701938658301 0
vt 68.70191410045025 -33.19469196558845 0
vt 66.20348119943888 -31.241390752838583 0
vt 35.99501094023285 -30.514548501823253 0
vt 36.17672150298668 -7.347175398927132 0
vt 67.33915973995694 -8.3465585406864 0
vt 69.2924609527068 -8.391973704681453 0
vt 74.33479182549819 -8.391973704681453 0
vt 74.28937666150314 -7.75601168842985 0
vt 73.83507530123175 -7.75601168842985 0
vt 73.88054037200043 -7.392590562922185 0
vt 74.38020698949325 -7.347175398927132 0
vt 74.38020698949325 -6.529502819921698 0
vt 13.690725580337219 -5.121283388659712 0
vt 13.781605815100944 -6.938339109424415 0
vt 33.8145840007341 -7.528885961680965 0
vt 33.76911892996543 -12.480336599708629 0
vt 34.40513085299065 -12.843757725216294 0
vt 32.58807513222595 -12.934588053206399 0
vt 32.49719489746222 -20.429936663014093 0
vt 31.27068602895407 -25.29055697305165 0
vt 31.225270864959022 -30.787089392567193 0
vt 36.13546294011842 -12.6074778556047 0
vt 36.12580137138101 -13.839289393176873 0
vn 0 0 1
vn 0 0 -1
usemtl floor_1
s off
f 29/15/1 31/16/1 33/17/1
f 34/17/2 32/16/2 30/15/2
f 29/15/1 33/17/1 11/6/1
f 12/6/2 34/17/2 30/15/2
f 29/15/1 11/6/1 27/14/1
f 28/14/2 12/6/2 30/15/2
f 27/14/1 11/6/1 13/7/1
f 14/7/2 12/6/2 28/14/2
f 27/14/1 13/7/1 15/8/1
f 16/8/2 14/7/2 28/14/2
f 27/14/1 15/8/1 23/12/1
f 24/12/2 16/8/2 28/14/2
f 27/14/1 23/12/1 25/13/1
f 26/13/2 24/12/2 28/14/2
f 5/3/1 7/4/1 9/5/1
f 10/5/2 8/4/2 6/3/2
f 5/3/1 9/5/1 45/23/1
f 46/23/2 10/5/2 6/3/2
f 5/3/1 45/23/1 3/2/1
f 4/2/2 46/23/2 6/3/2
f 3/2/1 45/23/1 1/1/1
f 2/1/2 46/23/2 4/2/2
f 33/17/1 35/18/1 11/6/1
f 12/6/2 36/18/2 34/17/2
f 11/6/1 35/18/1 37/19/1
f 38/19/2 36/18/2 12/6/2
f 11/6/1 37/19/1 47/24/1
f 48/24/2 38/19/2 12/6/2
f 49/25/1 47/24/1 37/19/1
f 38/19/2 48/24/2 50/25/2
f 15/8/1 17/9/1 21/11/1
f 22/11/2 18/9/2 16/8/2
f 15/8/1 21/11/1 23/12/1
f 24/12/2 22/11/2 16/8/2
f 17/9/1 19/10/1 21/11/1
f 22/11/2 20/10/2 18/9/2
f 37/19/1 9/5/1 49/25/1
f 50/25/2 10/5/2 38/19/2
f 9/5/1 37/19/1 41/21/1
f 42/21/2 38/19/2 10/5/2
f 9/5/1 41/21/1 43/22/1
f 44/22/2 42/21/2 10/5/2
f 9/5/1 43/22/1 45/23/1
f 46/23/2 44/22/2 10/5/2
f 41/21/1 37/19/1 39/20/1
f 40/20/2 38/19/2 42/21/2
