# The Great Editor v0.0.1
mtllib floor_2.mtl
o floor_2
v 66.20348119943888 -31.241390752838583 0
v 66.20348119943888 -31.241390752838583 -0.1
v 68.70191410045025 -33.19469196558845 0
v 68.70191410045025 -33.19469196558845 -0.1
v 69.2924609527068 -8.391973704681453 0
v 69.2924609527068 -8.391973704681453 -0.1
v 67.33915973995694 -8.3465585406864 0
v 67.33915973995694 -8.3465585406864 -0.1
vt 66.20348119943888 -31.241390752838583 0
vt 68.70191410045025 -33.19469196558845 0
vt 69.2924609527068 -8.391973704681453 0
vt 67.33915973995694 -8.3465585406864 0
vn 0 0 1
vn 0 0 -1
usemtl floor_2
s off
f 7/4/1 1/1/1 5/3/1
f 6/3/2 2/1/2 8/4/2
f 5/3/1 1/1/1 3/2/1
f 4/2/2 2/1/2 6/3/2
